<svg xmlns="http://www.w3.org/2000/svg" xmlns:xlink="http://www.w3.org/1999/xlink" version="1.1" width="1920px" height="430px" style="shape-rendering:geometricPrecision; text-rendering:geometricPrecision; image-rendering:optimizeQuality; fill-rule:evenodd; clip-rule:evenodd">
<g><path style="opacity:0.986" fill="#f97316" d="M 199.5,21.5 C 262.668,17.7132 316.168,38.3799 360,83.5C 360.667,84.5 360.667,85.5 360,86.5C 341.269,110.297 328.102,136.964 320.5,166.5C 291.076,113.294 246.41,92.7943 186.5,105C 130.784,124.735 103.284,164.235 104,223.5C 110.884,276.05 139.717,309.883 190.5,325C 204.376,328.093 218.376,329.093 232.5,328C 201.786,342.428 169.453,350.428 135.5,352C 117.142,352.833 98.8086,352.499 80.5,351C 33.0341,301.344 15.5341,242.511 28,174.5C 42.7053,111.467 79.2053,65.9667 137.5,38C 157.455,29.3465 178.121,23.8465 199.5,21.5 Z"/></g>
<g><path style="opacity:0.985" fill="#f97316" d="M 506.5,21.5 C 544.527,18.6701 580.527,25.8368 614.5,43C 623.721,48.1032 632.388,53.9365 640.5,60.5C 590.88,58.2722 543.546,67.7722 498.5,89C 433.897,124.007 403.397,178.507 407,252.5C 391.433,320.396 351.6,367.896 287.5,395C 231.212,414.845 176.545,411.179 123.5,384C 115.488,379.329 107.821,374.162 100.5,368.5C 142.685,370.067 183.685,363.567 223.5,349C 256.097,336.058 283.264,315.892 305,288.5C 326.446,257.989 335.78,223.989 333,186.5C 347.93,105.902 394.43,53.0686 472.5,28C 483.838,25.0978 495.172,22.9311 506.5,21.5 Z"/></g>
<g><path style="opacity:0.986" fill="#f97316" d="M 606.5,76.5 C 624.859,76.1866 643.192,76.6866 661.5,78C 712.486,132.774 728.653,196.607 710,269.5C 682.433,349.731 626.599,395.565 542.5,407C 487.252,411.138 438.585,395.471 396.5,360C 391.121,354.956 386.121,349.623 381.5,344C 399.844,319.476 413.01,292.31 421,262.5C 451.6,316.876 497.433,337.043 558.5,323C 608.268,304.041 634.935,267.874 638.5,214.5C 634.935,161.126 608.268,124.959 558.5,106C 542.434,101.493 526.101,99.8268 509.5,101C 540.316,86.4086 572.649,78.2419 606.5,76.5 Z"/></g>
<g><path style="opacity:0.96" fill="#f97316" d="M 1262.5,106.5 C 1280.08,105.094 1289.75,113.094 1291.5,130.5C 1287.87,150.329 1276.2,157.496 1256.5,152C 1247.06,147.806 1242.39,140.473 1242.5,130C 1243.29,117.053 1249.95,109.22 1262.5,106.5 Z"/></g>
<g><path style="opacity:0.972" fill="#f97316" d="M 1354.5,119.5 C 1356.83,119.5 1359.17,119.5 1361.5,119.5C 1361.5,132.833 1361.5,146.167 1361.5,159.5C 1371.5,159.5 1381.5,159.5 1391.5,159.5C 1391.5,171.167 1391.5,182.833 1391.5,194.5C 1381.5,194.5 1371.5,194.5 1361.5,194.5C 1361.33,220.502 1361.5,246.502 1362,272.5C 1363.34,275.094 1365.51,276.594 1368.5,277C 1376.18,277.541 1383.85,277.374 1391.5,276.5C 1391.82,289.746 1391.49,302.913 1390.5,316C 1377.2,318.51 1363.87,318.843 1350.5,317C 1329.53,312.028 1317.69,298.862 1315,277.5C 1314.5,249.835 1314.33,222.169 1314.5,194.5C 1310.17,194.5 1305.83,194.5 1301.5,194.5C 1301.5,182.833 1301.5,171.167 1301.5,159.5C 1305.83,159.5 1310.17,159.5 1314.5,159.5C 1314.5,148.5 1314.5,137.5 1314.5,126.5C 1328,124.363 1341.33,122.03 1354.5,119.5 Z"/></g>
<g><path style="opacity:0.974" fill="#f97316" d="M 856.5,155.5 C 878.272,152.623 898.272,157.123 916.5,169C 928.563,179.338 934.563,192.504 934.5,208.5C 920.167,208.5 905.833,208.5 891.5,208.5C 891.432,203.924 889.432,200.424 885.5,198C 874.965,193.054 864.632,193.387 854.5,199C 848.374,208.748 851.041,215.081 862.5,218C 882.626,218.295 901.626,222.962 919.5,232C 934.768,243.789 940.601,259.289 937,278.5C 933.618,299.218 921.784,312.384 901.5,318C 878.939,324.444 856.605,323.777 834.5,316C 813.634,305.79 803.301,288.957 803.5,265.5C 818.5,265.5 833.5,265.5 848.5,265.5C 850.319,274.817 855.985,280.317 865.5,282C 874.881,283.899 883.381,282.066 891,276.5C 893.684,266.748 889.851,260.915 879.5,259C 863.785,257.936 848.451,254.936 833.5,250C 808.998,238.223 800.498,219.056 808,192.5C 812.144,179.354 820.31,169.52 832.5,163C 840.328,159.55 848.328,157.05 856.5,155.5 Z"/></g>
<g><path style="opacity:0.978" fill="#f97316" d="M 1017.5,155.5 C 1050.26,151.583 1077.76,161.583 1100,185.5C 1108.93,197.705 1114.26,211.371 1116,226.5C 1116.5,257.165 1116.67,287.832 1116.5,318.5C 1103.17,318.5 1089.83,318.5 1076.5,318.5C 1076.67,314.154 1076.5,309.821 1076,305.5C 1056.71,319.694 1035.21,324.528 1011.5,320C 972.627,312.794 950.46,289.628 945,250.5C 941.085,219.565 950.585,193.732 973.5,173C 986.798,163.51 1001.46,157.677 1017.5,155.5 Z M 1024.5,193.5 C 1052.54,193.369 1069.37,207.035 1075,234.5C 1075.82,253.363 1068.32,267.863 1052.5,278C 1025.22,289.573 1004.05,282.739 989,257.5C 980.599,234.601 986.099,215.768 1005.5,201C 1011.6,197.583 1017.94,195.083 1024.5,193.5 Z"/></g>
<g><path style="opacity:0.971" fill="#f97316" d="M 1207.5,155.5 C 1215.19,155.403 1222.86,155.737 1230.5,156.5C 1230.83,169.85 1230.5,183.183 1229.5,196.5C 1214.05,192.558 1199.39,194.391 1185.5,202C 1180.38,206.74 1177.21,212.573 1176,219.5C 1174.63,252.482 1174.13,285.482 1174.5,318.5C 1159.83,318.5 1145.17,318.5 1130.5,318.5C 1130.5,265.5 1130.5,212.5 1130.5,159.5C 1143.83,159.5 1157.17,159.5 1170.5,159.5C 1170.17,164.214 1170.51,168.88 1171.5,173.5C 1181.1,162.7 1193.1,156.7 1207.5,155.5 Z"/></g>
<g><path style="opacity:0.975" fill="#f97316" d="M 1471.5,155.5 C 1498.5,152.498 1522.83,158.998 1544.5,175C 1558.91,187.98 1567.41,204.146 1570,223.5C 1571.42,255.142 1571.92,286.809 1571.5,318.5C 1557.83,318.5 1544.17,318.5 1530.5,318.5C 1530.67,314.154 1530.5,309.821 1530,305.5C 1510.73,319.756 1489.23,324.59 1465.5,320C 1422.13,310.611 1399.79,283.611 1398.5,239C 1400.34,191.331 1424.68,163.498 1471.5,155.5 Z M 1479.5,193.5 C 1513.44,194.939 1529.94,212.605 1529,246.5C 1521.29,273.442 1503.46,285.608 1475.5,283C 1456.12,277.617 1444.28,265.117 1440,245.5C 1438.17,225.988 1445.34,210.821 1461.5,200C 1467.29,196.905 1473.29,194.739 1479.5,193.5 Z"/></g>
<g><path style="opacity:0.975" fill="#f97316" d="M 1635.5,155.5 C 1656.38,152.92 1675.71,157.086 1693.5,168C 1706.17,178.515 1712.51,192.015 1712.5,208.5C 1698.17,208.5 1683.83,208.5 1669.5,208.5C 1669.43,203.853 1667.43,200.353 1663.5,198C 1653.8,193.514 1644.13,193.514 1634.5,198C 1628.3,203.369 1627.97,209.036 1633.5,215C 1634.83,215.667 1636.17,216.333 1637.5,217C 1648.84,218.593 1660.17,220.26 1671.5,222C 1707.02,228.872 1721.19,250.039 1714,285.5C 1707.85,303.647 1695.35,314.814 1676.5,319C 1655.96,324.112 1635.63,323.445 1615.5,317C 1593.06,307.319 1581.73,290.153 1581.5,265.5C 1596.51,265.167 1611.51,265.501 1626.5,266.5C 1629.38,275.132 1635.38,280.299 1644.5,282C 1652.15,283.182 1659.48,282.182 1666.5,279C 1671.56,275.194 1672.39,270.694 1669,265.5C 1666.77,263.3 1664.27,261.467 1661.5,260C 1650.57,257.975 1639.57,256.309 1628.5,255C 1590.53,247.226 1577.03,224.726 1588,187.5C 1593.56,174.939 1602.73,166.106 1615.5,161C 1622.14,158.581 1628.81,156.748 1635.5,155.5 Z"/></g>
<g><path style="opacity:0.979" fill="#f97316" d="M 1795.5,155.5 C 1823.07,152.389 1847.74,159.222 1869.5,176C 1883.09,189.351 1891.26,205.518 1894,224.5C 1894.5,255.832 1894.67,287.165 1894.5,318.5C 1881.17,318.5 1867.83,318.5 1854.5,318.5C 1854.67,314.154 1854.5,309.821 1854,305.5C 1834.71,319.694 1813.21,324.528 1789.5,320C 1749.25,312.419 1727.09,288.253 1723,247.5C 1720.01,214.738 1731.51,188.571 1757.5,169C 1769.44,162.187 1782.11,157.687 1795.5,155.5 Z M 1803.5,193.5 C 1822.22,192.775 1836.72,200.108 1847,215.5C 1858.84,239.99 1854,260.49 1832.5,277C 1807.62,289.404 1786.78,284.57 1770,262.5C 1757.78,237.243 1762.95,216.41 1785.5,200C 1791.3,196.903 1797.3,194.736 1803.5,193.5 Z"/></g>
<g><path style="opacity:0.981" fill="#f97316" d="M 1244.5,159.5 C 1259.17,159.5 1273.83,159.5 1288.5,159.5C 1288.5,212.5 1288.5,265.5 1288.5,318.5C 1273.83,318.5 1259.17,318.5 1244.5,318.5C 1244.5,265.5 1244.5,212.5 1244.5,159.5 Z"/></g>
</svg>