<svg xmlns="http://www.w3.org/2000/svg" xmlns:xlink="http://www.w3.org/1999/xlink" version="1.1" width="1260px" height="1080px" style="shape-rendering:geometricPrecision; text-rendering:geometricPrecision; image-rendering:optimizeQuality; fill-rule:evenodd; clip-rule:evenodd">
<g><path style="opacity:0.991" fill="#f97316" d="M 356.5,66.5 C 458.009,62.5928 543.342,97.4262 612.5,171C 580.979,210.88 559.146,255.713 547,305.5C 511.376,236.573 454.543,200.24 376.5,196.5C 294.012,200.867 235.845,240.533 202,315.5C 177.525,384.649 187.858,447.982 233,505.5C 277.667,555.397 333.5,577.231 400.5,571C 364.775,588.685 327.109,600.352 287.5,606C 242.312,611.715 196.979,613.049 151.5,610C 72.6436,526.458 44.1436,427.958 66,314.5C 93.886,204.526 160.386,128.359 265.5,86C 295.111,75.4465 325.444,68.9465 356.5,66.5 Z"/></g>
<g><path style="opacity:0.99" fill="#f97316" d="M 862.5,66.5 C 941.158,62.6515 1011.83,84.1515 1074.5,131C 1009.45,128.214 946.113,137.214 884.5,158C 824.719,178.613 775.552,213.779 737,263.5C 723.136,282.891 712.136,303.891 704,326.5C 700.227,338.594 697.56,350.927 696,363.5C 698.589,455.099 669.589,534.765 609,602.5C 529.503,682.443 433.67,714.277 321.5,698C 270.757,689.118 225.091,669.118 184.5,638C 241.903,640.326 298.237,633.659 353.5,618C 418.343,599.354 472.509,564.521 516,513.5C 538.228,485.372 553.228,453.706 561,418.5C 563.55,393.219 565.55,367.886 567,342.5C 583.657,236.259 638.49,156.759 731.5,104C 772.692,82.4308 816.359,69.9308 862.5,66.5 Z"/></g>
<g><path style="opacity:0.991" fill="#f97316" d="M 1023.5,157.5 C 1051.18,157.322 1078.85,157.822 1106.5,159C 1176.52,230.371 1207.35,316.204 1199,416.5C 1185.85,523.214 1133.68,604.381 1042.5,660C 955.619,707.657 865.286,715.323 771.5,683C 722.792,664.828 681.125,636.495 646.5,598C 678.021,558.12 699.854,513.287 712,463.5C 745.826,529.692 799.992,565.859 874.5,572C 957.511,571.575 1017.34,534.408 1054,460.5C 1082.45,388.78 1072.79,322.78 1025,262.5C 980.374,213.286 924.874,191.786 858.5,198C 896.682,179.035 937.015,167.035 979.5,162C 994.292,160.218 1008.96,158.718 1023.5,157.5 Z"/></g>
<g><path style="opacity:0.965" fill="#f97316" d="M 531.5,771.5 C 556.796,770.627 567.296,782.627 563,807.5C 558.332,818.761 549.832,824.427 537.5,824.5C 516.529,822.69 507.695,811.356 511,790.5C 514.196,780.134 521.03,773.8 531.5,771.5 Z"/></g>
<g><path style="opacity:0.975" fill="#f97316" d="M 637.5,785.5 C 639.167,785.5 640.833,785.5 642.5,785.5C 642.5,800.5 642.5,815.5 642.5,830.5C 654.167,830.5 665.833,830.5 677.5,830.5C 677.5,843.5 677.5,856.5 677.5,869.5C 665.833,869.5 654.167,869.5 642.5,869.5C 642.333,898.169 642.5,926.835 643,955.5C 644.388,958.945 646.888,961.111 650.5,962C 659.516,962.599 668.516,962.432 677.5,961.5C 677.5,976.167 677.5,990.833 677.5,1005.5C 660.827,1008.49 644.16,1008.66 627.5,1006C 604.399,998.655 592.232,982.821 591,958.5C 590.5,928.835 590.333,899.169 590.5,869.5C 585.833,869.5 581.167,869.5 576.5,869.5C 576.5,856.5 576.5,843.5 576.5,830.5C 581.167,830.5 585.833,830.5 590.5,830.5C 590.5,818.167 590.5,805.833 590.5,793.5C 606.383,791.353 622.05,788.687 637.5,785.5 Z"/></g>
<g><path style="opacity:0.977" fill="#f97316" d="M 86.5,825.5 C 107.145,824.244 126.145,829.077 143.5,840C 157.896,851.628 165.229,866.795 165.5,885.5C 149.5,885.5 133.5,885.5 117.5,885.5C 116.433,877.265 111.766,872.432 103.5,871C 96.8333,870.333 90.1667,870.333 83.5,871C 73.4394,874.285 70.2728,880.785 74,890.5C 76.8747,893.463 80.3747,895.296 84.5,896C 102.651,896.858 120.318,900.191 137.5,906C 153.772,912.604 163.939,924.438 168,941.5C 172.917,975.204 159.417,997.37 127.5,1008C 102.155,1014.81 77.1551,1013.81 52.5,1005C 29.6776,993.648 18.6776,975.148 19.5,949.5C 36.1667,949.5 52.8333,949.5 69.5,949.5C 71.191,958.542 76.5244,964.376 85.5,967C 96.1031,969.841 106.103,968.507 115.5,963C 119.93,956.77 119.263,951.103 113.5,946C 110.618,944.392 107.618,943.059 104.5,942C 88.9411,940.629 73.6078,937.962 58.5,934C 25.7576,921.51 14.591,898.343 25,864.5C 33.6835,844.39 48.8502,832.224 70.5,828C 75.988,827.226 81.3213,826.393 86.5,825.5 Z"/></g>
<g><path style="opacity:0.978" fill="#f97316" d="M 267.5,825.5 C 294.833,824.445 319.166,832.279 340.5,849C 358.233,865.974 367.733,886.807 369,911.5C 369.5,943.832 369.667,976.165 369.5,1008.5C 354.5,1008.5 339.5,1008.5 324.5,1008.5C 324.5,1003.83 324.5,999.167 324.5,994.5C 290.192,1015.56 254.859,1017.06 218.5,999C 193.063,982.987 179.229,959.821 177,929.5C 175.033,866.645 205.2,831.979 267.5,825.5 Z M 267.5,868.5 C 295.89,868.739 314.057,882.406 322,909.5C 324.774,940.462 311.274,960.296 281.5,969C 257.229,971.615 239.063,962.449 227,941.5C 216.741,914.614 223.241,892.781 246.5,876C 253.162,872.171 260.162,869.671 267.5,868.5 Z"/></g>
<g><path style="opacity:0.981" fill="#f97316" d="M 776.5,825.5 C 808.783,824.236 835.95,835.236 858,858.5C 868.748,872.677 875.082,888.677 877,906.5C 877.5,940.498 877.667,974.498 877.5,1008.5C 862.5,1008.5 847.5,1008.5 832.5,1008.5C 832.666,1003.49 832.499,998.489 832,993.5C 810.412,1009.69 786.245,1015.19 759.5,1010C 717.849,1002.02 693.349,977.183 686,935.5C 681.291,903.131 689.791,874.964 711.5,851C 730.214,834.929 751.881,826.429 776.5,825.5 Z M 775.5,868.5 C 806.124,868.63 824.624,883.63 831,913.5C 832.062,939.084 820.896,956.918 797.5,967C 771.871,973.904 751.704,966.404 737,944.5C 724.24,915.795 730.74,892.628 756.5,875C 762.715,872.096 769.049,869.929 775.5,868.5 Z"/></g>
<g><path style="opacity:0.977" fill="#f97316" d="M 956.5,825.5 C 978.007,823.959 997.673,829.126 1015.5,841C 1029.06,852.282 1036.06,866.782 1036.5,884.5C 1020.5,885.833 1004.5,885.833 988.5,884.5C 987.42,879.489 984.754,875.656 980.5,873C 969.322,869.344 958.322,869.677 947.5,874C 939.966,882.665 941.299,889.665 951.5,895C 963.484,896.726 975.484,898.393 987.5,900C 1034.64,909.77 1049.8,937.27 1033,982.5C 1021.53,998.995 1005.7,1008.5 985.5,1011C 961.819,1015.19 939.152,1012.19 917.5,1002C 898.915,989.675 889.582,972.175 889.5,949.5C 906.17,949.333 922.837,949.5 939.5,950C 942.844,960.695 950.177,966.695 961.5,968C 972.191,969.803 981.357,966.97 989,959.5C 990.199,951.074 986.699,945.574 978.5,943C 963.12,940.691 947.786,938.025 932.5,935C 896.22,922.602 884.387,898.102 897,861.5C 906.217,842.965 921.05,831.798 941.5,828C 946.661,827.268 951.661,826.434 956.5,825.5 Z"/></g>
<g><path style="opacity:0.981" fill="#f97316" d="M 1138.5,825.5 C 1168.33,824.273 1194.17,833.607 1216,853.5C 1228.49,867.829 1236.16,884.495 1239,903.5C 1239.5,938.498 1239.67,973.498 1239.5,1008.5C 1224.83,1008.5 1210.17,1008.5 1195.5,1008.5C 1195.25,1003.48 1194.75,998.481 1194,993.5C 1172.79,1009.76 1148.96,1015.26 1122.5,1010C 1078.97,1002.14 1054.14,976.304 1048,932.5C 1044.54,868.139 1074.71,832.472 1138.5,825.5 Z M 1138.5,868.5 C 1167.31,868.819 1185.47,882.819 1193,910.5C 1195.74,933.18 1187.57,950.68 1168.5,963C 1144.76,974.532 1123.6,971.032 1105,952.5C 1089.22,931.633 1088.56,910.3 1103,888.5C 1112.5,877.503 1124.34,870.836 1138.5,868.5 Z"/></g>
<g><path style="opacity:0.978" fill="#f97316" d="M 468.5,826.5 C 477.873,826.248 487.207,826.582 496.5,827.5C 496.5,842.167 496.5,856.833 496.5,871.5C 478.934,867.303 462.267,869.47 446.5,878C 439.599,884.303 435.765,892.136 435,901.5C 434.5,937.165 434.333,972.832 434.5,1008.5C 418.167,1008.5 401.833,1008.5 385.5,1008.5C 385.5,949.167 385.5,889.833 385.5,830.5C 400.167,830.5 414.833,830.5 429.5,830.5C 429.054,836.021 429.554,841.355 431,846.5C 436.367,839.476 443.2,834.309 451.5,831C 457.211,829.166 462.878,827.666 468.5,826.5 Z"/></g>
<g><path style="opacity:0.987" fill="#f97316" d="M 512.5,830.5 C 528.833,830.5 545.167,830.5 561.5,830.5C 561.5,889.833 561.5,949.167 561.5,1008.5C 545.167,1008.5 528.833,1008.5 512.5,1008.5C 512.5,949.167 512.5,889.833 512.5,830.5 Z"/></g>
</svg>